<svg width="22" height="20" viewBox="0 0 22 20" fill="none" xmlns="http://www.w3.org/2000/svg">
<path d="M10.365 0.993969C10.6697 0.0839989 11.9568 0.0840009 12.2615 0.993971L14.0737 6.40603C14.2102 6.81371 14.592 7.0885 15.022 7.0885H20.8209C21.7969 7.0885 22.1948 8.34344 21.3971 8.90581L16.758 12.1764C16.3969 12.4309 16.2457 12.8923 16.3859 13.3112L18.1701 18.6394C18.4768 19.5554 17.4352 20.3308 16.6456 19.7742L11.8894 16.4211C11.5439 16.1775 11.0826 16.1775 10.737 16.4211L5.98087 19.7742C5.19133 20.3308 4.14968 19.5554 4.45642 18.6394L6.24055 13.3112C6.38083 12.8923 6.22958 12.4309 5.8685 12.1764L1.22936 8.90581C0.431667 8.34344 0.82956 7.0885 1.80556 7.0885H7.60451C8.03444 7.0885 8.41625 6.8137 8.55276 6.40602L10.365 0.993969Z" fill="#070707"/>
</svg>
