<svg width="22" height="20" viewBox="0 0 22 20" fill="none" xmlns="http://www.w3.org/2000/svg">
<path d="M9.73853 0.993969C10.0432 0.0839989 11.3303 0.0840009 11.635 0.993971L13.4473 6.40603C13.5838 6.81371 13.9656 7.0885 14.3955 7.0885H20.1945C21.1705 7.0885 21.5684 8.34344 20.7707 8.90581L16.1315 12.1764C15.7704 12.4309 15.6192 12.8923 15.7595 13.3112L17.5436 18.6394C17.8503 19.5554 16.8087 20.3308 16.0192 19.7742L11.263 16.4211C10.9175 16.1775 10.4561 16.1775 10.1106 16.4211L5.35441 19.7742C4.56486 20.3308 3.52322 19.5554 3.82996 18.6394L5.61409 13.3112C5.75437 12.8923 5.60312 12.4309 5.24204 12.1764L0.602895 8.90581C-0.194798 8.34344 0.203095 7.0885 1.17909 7.0885H6.97805C7.40797 7.0885 7.78979 6.8137 7.9263 6.40602L9.73853 0.993969Z" fill="#E5E5E5"/>
</svg>
